<?xml version="1.0" standalone="no"?>
<!DOCTYPE svg PUBLIC "-//W3C//DTD SVG 20010904//EN"
 "http://www.w3.org/TR/2001/REC-SVG-20010904/DTD/svg10.dtd">
<svg version="1.0" xmlns="http://www.w3.org/2000/svg"
 width="512.000000pt" height="512.000000pt" viewBox="0 0 512.000000 512.000000"
 preserveAspectRatio="xMidYMid meet">

<g transform="translate(0.000000,512.000000) scale(0.100000,-0.100000)"
fill="#000000" stroke="none">
<path d="M2321 5109 c-486 -43 -989 -249 -1376 -564 -114 -92 -294 -274 -384
-387 -229 -287 -417 -675 -495 -1023 -49 -218 -60 -325 -60 -575 0 -250 11
-357 60 -575 79 -355 272 -749 509 -1040 92 -114 274 -294 387 -384 287 -229
675 -417 1023 -495 218 -49 325 -60 575 -60 250 0 357 11 575 60 261 58 603
204 828 353 389 259 688 599 893 1016 165 337 246 658 261 1033 23 598 -168
1183 -545 1672 -84 109 -323 348 -432 432 -528 407 -1164 595 -1819 537z m424
-170 c289 -25 553 -93 804 -207 l64 -29 -154 -102 c-253 -170 -418 -302 -613
-491 -205 -198 -353 -379 -561 -680 -359 -520 -612 -769 -1180 -1165 -230
-160 -410 -310 -590 -492 l-151 -152 -41 112 c-94 253 -137 469 -149 742 l-6
140 102 135 c287 380 520 615 930 935 325 255 504 429 837 812 105 121 242
272 304 336 l114 117 85 0 c47 0 139 -5 205 -11z m-607 -68 c-24 -26 -106
-120 -183 -207 -397 -453 -509 -562 -886 -862 -344 -274 -534 -455 -760 -725
-55 -64 -99 -112 -99 -105 0 35 54 244 91 351 188 555 566 1014 1077 1309 193
112 458 213 682 261 63 14 116 26 118 26 2 1 -16 -21 -40 -48z m1768 -343
c185 -125 366 -292 517 -478 62 -76 187 -261 187 -276 0 -17 -185 -275 -300
-418 -116 -143 -332 -375 -451 -482 -228 -208 -401 -340 -694 -533 -355 -233
-539 -382 -830 -675 -284 -285 -396 -427 -799 -1009 l-130 -186 -35 21 c-376
222 -689 537 -885 891 l-38 67 60 68 c200 223 423 415 732 632 313 219 442
322 638 514 196 191 351 381 555 677 265 385 503 644 827 904 128 102 521 365
534 358 6 -4 57 -37 112 -75z m845 -1023 c45 -101 89 -233 123 -365 25 -99 53
-258 45 -263 -2 -2 -92 -80 -199 -174 -222 -194 -405 -378 -599 -603 -349
-404 -520 -572 -840 -823 -216 -171 -335 -272 -470 -402 -175 -168 -406 -436
-530 -613 -24 -34 -51 -62 -60 -62 -29 0 -174 28 -257 49 -102 26 -260 81
-340 118 l-61 28 186 266 c355 507 458 636 716 895 262 263 428 396 815 654
118 79 260 177 315 219 400 300 754 665 1035 1062 41 59 77 105 79 103 2 -2
21 -42 42 -89z m195 -1006 c-28 -643 -263 -1187 -701 -1624 -366 -367 -829
-601 -1335 -675 -150 -22 -416 -36 -448 -23 -23 9 -22 11 46 99 244 313 506
571 887 869 306 240 490 420 830 810 115 132 261 292 325 355 128 129 377 350
393 350 7 0 8 -53 3 -161z"/>
<path d="M1890 3935 l0 -85 85 0 85 0 0 85 0 85 -85 0 -85 0 0 -85z"/>
<path d="M1333 3419 c-204 -36 -284 -281 -140 -429 80 -82 191 -101 294 -50
95 48 143 124 143 227 -1 160 -141 279 -297 252z m81 -180 c58 -27 56 -111 -3
-141 -88 -44 -161 71 -84 132 29 23 51 25 87 9z"/>
<path d="M692 2913 l3 -88 85 0 85 0 0 85 0 85 -88 3 -88 3 3 -88z"/>
<path d="M3934 3757 c-3 -8 -4 -47 -2 -88 l3 -74 88 -3 87 -3 0 91 0 90 -85 0
c-63 0 -87 -4 -91 -13z"/>
<path d="M2997 3333 c-4 -3 -7 -42 -7 -85 l0 -78 90 0 90 0 0 85 0 85 -83 0
c-46 0 -87 -3 -90 -7z"/>
<path d="M1999 2480 c-103 -18 -202 -93 -248 -190 -22 -47 -26 -68 -26 -150 0
-82 4 -102 25 -144 112 -221 398 -259 564 -76 50 56 77 119 84 197 11 136 -64
270 -187 333 -31 15 -142 43 -160 39 -3 -1 -27 -5 -52 -9z m140 -191 c55 -30
84 -79 84 -142 1 -98 -54 -158 -153 -165 -68 -5 -107 12 -145 63 -35 45 -42
103 -21 159 9 24 24 51 34 59 55 50 139 61 201 26z"/>
<path d="M1290 1035 l0 -85 85 0 85 0 0 85 0 85 -85 0 -85 0 0 -85z"/>
<path d="M3340 1890 l0 -90 85 0 85 0 0 90 0 90 -85 0 -85 0 0 -90z"/>
<path d="M4360 1545 l0 -85 90 0 90 0 0 85 0 85 -90 0 -90 0 0 -85z"/>
<path d="M3257 694 c-4 -4 -7 -45 -7 -91 l0 -83 90 0 91 0 -3 88 -3 87 -80 3
c-45 1 -84 0 -88 -4z"/>
</g>
</svg>
